<mxfile host="65bd71144e">
    <diagram id="oktRlE9KKJ6NZzSq5rQG" name="Page-1">
        <mxGraphModel dx="13095" dy="3271" grid="1" gridSize="1" guides="1" tooltips="1" connect="1" arrows="1" fold="1" page="1" pageScale="1" pageWidth="850" pageHeight="1100" math="0" shadow="0">
            <root>
                <mxCell id="0"/>
                <mxCell id="1" parent="0"/>
                <mxCell id="15" style="edgeStyle=none;html=1;entryX=0.5;entryY=0;entryDx=0;entryDy=0;fontSize=21;" edge="1" parent="1" source="6" target="8">
                    <mxGeometry relative="1" as="geometry"/>
                </mxCell>
                <mxCell id="6" value="C9" style="whiteSpace=wrap;html=1;fillColor=#d5e8d4;strokeColor=#000000;strokeWidth=5;fontStyle=1;fontSize=21;" vertex="1" parent="1">
                    <mxGeometry x="-11751" y="-1824" width="82.11" height="45.52" as="geometry"/>
                </mxCell>
                <mxCell id="7" value="C0" style="whiteSpace=wrap;html=1;fillColor=#d5e8d4;strokeColor=#000000;strokeWidth=5;fontStyle=1;fontSize=21;" vertex="1" parent="1">
                    <mxGeometry x="-11751" y="-1869.52" width="82.11" height="45.52" as="geometry"/>
                </mxCell>
                <mxCell id="8" value="PE0" style="ellipse;whiteSpace=wrap;html=1;aspect=fixed;fontSize=30;strokeColor=#000000;fillColor=#FFD966;opacity=80;" vertex="1" parent="1">
                    <mxGeometry x="-11744.94" y="-1724" width="70" height="70" as="geometry"/>
                </mxCell>
                <mxCell id="9" value="0" style="text;html=1;strokeColor=none;fillColor=none;align=center;verticalAlign=middle;whiteSpace=wrap;rounded=0;fontSize=21;" vertex="1" parent="1">
                    <mxGeometry x="-11836" y="-1884" width="30" height="30" as="geometry"/>
                </mxCell>
                <mxCell id="10" value="" style="endArrow=classic;html=1;fontSize=21;" edge="1" parent="1">
                    <mxGeometry width="50" height="50" relative="1" as="geometry">
                        <mxPoint x="-11799" y="-1870" as="sourcePoint"/>
                        <mxPoint x="-11754" y="-1870" as="targetPoint"/>
                    </mxGeometry>
                </mxCell>
                <mxCell id="11" value="" style="endArrow=classic;html=1;fontSize=21;entryX=0;entryY=0;entryDx=0;entryDy=0;" edge="1" parent="1">
                    <mxGeometry width="50" height="50" relative="1" as="geometry">
                        <mxPoint x="-11799" y="-1824" as="sourcePoint"/>
                        <mxPoint x="-11754" y="-1824" as="targetPoint"/>
                    </mxGeometry>
                </mxCell>
                <mxCell id="12" value="XY" style="text;html=1;strokeColor=none;fillColor=none;align=center;verticalAlign=middle;whiteSpace=wrap;rounded=0;fontSize=21;" vertex="1" parent="1">
                    <mxGeometry x="-11836" y="-1839" width="34" height="30" as="geometry"/>
                </mxCell>
                <mxCell id="16" style="edgeStyle=none;html=1;entryX=0.5;entryY=0;entryDx=0;entryDy=0;fontSize=21;" edge="1" parent="1" source="17" target="19">
                    <mxGeometry relative="1" as="geometry"/>
                </mxCell>
                <mxCell id="17" value="C10" style="whiteSpace=wrap;html=1;fillColor=#d5e8d4;strokeColor=#000000;strokeWidth=5;fontStyle=1;fontSize=21;" vertex="1" parent="1">
                    <mxGeometry x="-11609" y="-1824" width="82.11" height="45.52" as="geometry"/>
                </mxCell>
                <mxCell id="18" value="C1" style="whiteSpace=wrap;html=1;fillColor=#d5e8d4;strokeColor=#000000;strokeWidth=5;fontStyle=1;fontSize=21;" vertex="1" parent="1">
                    <mxGeometry x="-11609" y="-1869.52" width="82.11" height="45.52" as="geometry"/>
                </mxCell>
                <mxCell id="19" value="PE1" style="ellipse;whiteSpace=wrap;html=1;aspect=fixed;fontSize=30;strokeColor=#000000;fillColor=#FFD966;opacity=80;" vertex="1" parent="1">
                    <mxGeometry x="-11602.94" y="-1724" width="70" height="70" as="geometry"/>
                </mxCell>
                <mxCell id="24" style="edgeStyle=none;html=1;entryX=0.5;entryY=0;entryDx=0;entryDy=0;fontSize=21;" edge="1" parent="1" source="25" target="27">
                    <mxGeometry relative="1" as="geometry"/>
                </mxCell>
                <mxCell id="25" value="C11" style="whiteSpace=wrap;html=1;fillColor=#d5e8d4;strokeColor=#000000;strokeWidth=5;fontStyle=1;fontSize=21;" vertex="1" parent="1">
                    <mxGeometry x="-11471" y="-1824" width="82.11" height="45.52" as="geometry"/>
                </mxCell>
                <mxCell id="26" value="C2" style="whiteSpace=wrap;html=1;fillColor=#d5e8d4;strokeColor=#000000;strokeWidth=5;fontStyle=1;fontSize=21;" vertex="1" parent="1">
                    <mxGeometry x="-11471" y="-1869.52" width="82.11" height="45.52" as="geometry"/>
                </mxCell>
                <mxCell id="27" value="PE2" style="ellipse;whiteSpace=wrap;html=1;aspect=fixed;fontSize=30;strokeColor=#000000;fillColor=#FFD966;opacity=80;" vertex="1" parent="1">
                    <mxGeometry x="-11464.94" y="-1724" width="70" height="70" as="geometry"/>
                </mxCell>
                <mxCell id="28" value="" style="endArrow=none;dashed=1;html=1;dashPattern=1 3;strokeWidth=6;fontSize=25;" edge="1" parent="1">
                    <mxGeometry width="50" height="50" relative="1" as="geometry">
                        <mxPoint x="-11370" y="-1688" as="sourcePoint"/>
                        <mxPoint x="-11249" y="-1688" as="targetPoint"/>
                    </mxGeometry>
                </mxCell>
                <mxCell id="29" style="edgeStyle=none;html=1;entryX=0.5;entryY=0;entryDx=0;entryDy=0;fontSize=21;" edge="1" parent="1" source="30" target="32">
                    <mxGeometry relative="1" as="geometry"/>
                </mxCell>
                <mxCell id="30" value="0" style="whiteSpace=wrap;html=1;fillColor=#d5e8d4;strokeColor=#000000;strokeWidth=5;fontStyle=1;fontSize=21;" vertex="1" parent="1">
                    <mxGeometry x="-11230" y="-1824" width="82.11" height="45.52" as="geometry"/>
                </mxCell>
                <mxCell id="31" value="C8" style="whiteSpace=wrap;html=1;fillColor=#d5e8d4;strokeColor=#000000;strokeWidth=5;fontStyle=1;fontSize=21;" vertex="1" parent="1">
                    <mxGeometry x="-11230" y="-1869.52" width="82.11" height="45.52" as="geometry"/>
                </mxCell>
                <mxCell id="32" value="PE9" style="ellipse;whiteSpace=wrap;html=1;aspect=fixed;fontSize=30;strokeColor=#000000;fillColor=#FFD966;opacity=80;" vertex="1" parent="1">
                    <mxGeometry x="-11223.94" y="-1724" width="70" height="70" as="geometry"/>
                </mxCell>
            </root>
        </mxGraphModel>
    </diagram>
</mxfile>